PathFileType	4	(X/Y/Z)	C:/Users/beibeiliu/ov580/test_trc/User2\sequence.3_training_dense_left.trc
DataRate	CameraRate	NumFrames	NumMarkers	Units	OrigDataRate	OrigDataStartFrame	OrigNumFrames
120	120	14	19	mm	120	215	343
Frame#	Time	ThumbCMC			ThumbMCP			ThumbIP			ThumbTip			IndexMCP			IndexPIP			IndexTip			MiddleMCP			MiddlePIP			MiddleTip			RingMCP			RingPIP			RingTip			PinkyMCP			PinkyPIP			PinkyTip			BackHand1			BackHand2			BackHand3	
		X0	Y0	Z0	X1	Y1	Z1	X2	Y2	Z2	X3	Y3	Z3	X4	Y4	Z4	X5	Y5	Z5	X6	Y6	Z6	X7	Y7	Z7	X8	Y8	Z8	X9	Y9	Z9	X10	Y10	Z10	X11	Y11	Z11	X12	Y12	Z12	X13	Y13	Z13	X14	Y14	Z14	X15	Y15	Z15	X16	Y16	Z16	X17	Y17	Z17	X18	Y18	Z18	
214	1.78333	-251.734	49.6777	100.765	-238.327	60.2093	64.2052	-222.068	54.8404	33.0773	-203.94	40.0837	20.6742	-251.357	18.9204	24.5122	-230.001	38.9074	16.5548	-230.64	49.7423	52.118	-231.236	8.16024	26.9715	-211.791	39.0296	25.6534	-222.107	38.7345	63.481	-205.333	3.80247	33.9928	-191.488	31.8666	33.3413	-204.509	37.2554	69.2965	-190.168	1.57489	47.6444	-183.017	34.3164	54.2476	-197.191	31.4851	85.3525	-228.728	-16.5409	91.2591	-228.801	-8.5925	126.245	-257.155	5.58154	105.798	
215	1.79167	-247.494	51.5074	98.8885	-233.601	67.545	67.8248	-213.641	65.7621	37.3711	-194.307	52.8447	25.4181	-241.394	26.58	27.179	-219.608	48.5353	16.74	-220.259	56.6518	51.5428	-216.843	18.8537	24.7295	-200.341	46.3633	27.3803	-215.747	44.8019	68.0336	-195.846	17.2684	32.0055	-181.03	41.6045	40.7561	-199.138	46.6243	72.0777	-179.265	11.4129	49.2513	-175.704	41.6321	59.0615	-194.526	37.7986	88.8558	-221.597	-11.5575	88.6437	-230.355	-8.08055	124.589	-255.03	8.62241	98.4264	
216	1.8	-245.205	55.7268	101.924	-226.184	72.6478	68.4178	-204.927	75.0802	42.2311	-183.009	58.1214	30.3947	-230.42	35.9412	23.9259	-206.331	59.8807	22.6635	-212.785	64.5854	55.8856	-210.317	27.9965	26.5546	-189.284	57.5232	35.0194	-206.5	48.4937	71.2138	-187.846	22.2712	38.3712	-172.998	49.6814	48.3879	-194.385	51.1215	78.647	-174.137	19.0902	52.9674	-168.996	47.3765	66.8228	-191.829	42.1307	92.6362	-221.155	-6.68223	84.8633	-225.354	-7.468	119.159	-249.938	12.9741	95.3963	
217	1.80833	-242.989	60.1118	95.464	-220.231	77.2815	70.1832	-195.711	80.3862	49.1086	-172.91	63.6967	39.667	-218.058	43.5868	23.5663	-195.637	64.2065	24.7528	-207.449	69.1632	59.9278	-194.716	35.1263	27.2159	-179.045	61.6182	40.899	-199.713	54.3347	75.6121	-175.707	30.0657	42.3545	-163.345	53.262	56.2011	-190.414	54.1983	85.1142	-166.7	21.7272	62.0037	-160.666	50.0887	78.7196	-188.053	41.1057	99.2579	-216.252	-4.48243	84.0491	-225.149	-4.78589	119.328	-245.941	15.063	92.3576	
218	1.81667	-238.664	60.6044	95.5815	-215.787	80.6596	75.1744	-186.996	82.1733	52.7712	-161.624	67.6654	45.94	-206.387	45.723	27.917	-184.634	67.7199	31.8925	-201.167	70.9164	65.5246	-182.718	36.3743	33.2522	-167.94	62.1396	48.6329	-194.975	55.6702	80.5593	-167.124	30.1215	50.5885	-158.588	59.2137	64.9291	-180.892	56.891	90.7676	-157.867	22.8022	70.7514	-160.395	54.222	86.1206	-186.025	44.4251	105.764	-210.235	-2.62457	86.738	-223.13	-6.21892	118.425	-243.105	14.9683	92.912	
219	1.825	-235.471	61.2821	97.2008	-210.668	83.6978	77.8059	-177.395	83.8908	56.6657	-154.402	71.4533	56.1716	-196.994	48.3029	31.6928	-174.52	70.4673	40.3318	-198.46	70.4926	71.9718	-176.012	38.1417	41.0234	-159.372	63.6154	57.8718	-188.95	56.6891	86.5115	-157.43	35.5428	57.266	-152.9	59.8215	71.0014	-180.034	58.4326	98.5365	-155.358	27.3606	76.693	-152.477	54.091	95.0864	-180.912	47.7823	109.146	-204.271	-0.480109	89.3369	-224.604	-4.38226	117.834	-237.181	16.971	89.7922	
220	1.83333	-234.587	64.1581	97.9359	-206.209	84.8655	81.3441	-173.17	89.9992	65.1259	-148.001	70.6877	63.9875	-187.758	50.9842	37.1287	-169.68	75.0125	49.7237	-191.976	74.3928	76.1978	-171.679	41.2134	45.9297	-157.123	68.9864	64.6065	-190.133	60.1082	89.6361	-151.629	36.9095	64.3042	-147.091	59.8725	82.5362	-176.721	59.7851	102.914	-146.331	30.008	84.5254	-150.351	56.0601	101.562	-182.144	48.6349	114.041	-199.077	-0.683385	91.7766	-223.067	-0.432687	116.815	-235.944	20.201	87.9223	
221	1.84167	-234.515	66.4467	98.4448	-202.702	87.0999	83.1907	-167.763	89.9595	69.3986	-142.914	73.3929	69.2903	-182.977	52.5504	41.7773	-165.056	76.0647	53.6518	-191.008	74.0576	80.5115	-166.284	44.6614	49.3183	-153.77	69.4612	73.5616	-189.243	59.4491	94.3727	-152.122	39.7767	69.096	-147.901	63.258	89.645	-179.532	58.5657	109.771	-147.977	32.9612	88.1958	-150.693	57.767	108.334	-180.823	49.3998	122.411	-199.15	2.82836	91.9738	-224.61	-3.74948	122.65	-235.105	22.2171	86.7804	
222	1.85	-233.568	65.2872	99.5724	-202.74	87.6123	84.7931	-168.165	91.4017	71.3696	-142.368	73.4442	72.6718	-183.759	55.0287	42.5964	-165.778	79.8367	55.1511	-190.215	77.849	82.3018	-166.303	45.0828	53.3036	-155.956	73.2982	76.6142	-189.644	60.1211	96.7234	-150.902	43.7338	72.2053	-148.37	65.8743	93.4858	-179.231	59.3601	112.86	-149.321	30.7168	92.896	-153.215	60.0306	114.025	-182.88	49.943	126.044	-196.922	1.8429	94.4066	-223.273	-0.378386	121.105	-233.235	20.459	92.8321	
223	1.85833	-236.398	65.8716	99.0326	-209.417	89.6325	88.6461	-175.429	91.9558	75.1804	-146.681	81.4504	71.3485	-184.858	58.0366	42.2996	-167.755	80.5815	57.0346	-193.555	75.2082	84.3053	-164.523	47.9768	54.8058	-157.95	76.5726	73.8479	-193.094	64.3436	95.9018	-154.007	46.1444	71.2208	-153.92	69.9194	94.0924	-182.359	62.2618	109.655	-148.651	39.6646	90.3177	-157.204	63.6958	110.039	-184.69	52.013	125.159	-199.428	3.74889	91.8549	-218.497	-4.34047	120.262	-231.777	20.7336	92.6589	
224	1.86667	-236.809	63.7017	98.6822	-211.043	86.1766	83.0598	-180.316	99.3171	68.5485	-151.988	86.4953	65.0088	-189.953	59.9063	38.0524	-174.996	83.8939	54.3038	-200.31	76.71	79.6174	-167.919	52.1467	49.2959	-162.443	78.6192	72.6301	-196.194	66.4884	91.9731	-157.416	46.702	68.1536	-156.129	73.4778	90.4597	-185.944	63.5449	106.139	-147.875	42.5762	86.5999	-157.146	66.9713	108.233	-187.377	53.8955	121.744	-196.296	3.26854	93.0449	-218.082	-3.37931	120.954	-233.972	20.4813	89.0944	
225	1.875	-240.696	63.5597	97.6957	-219.386	90.0135	78.5138	-190.053	95.5844	64.2254	-158.749	84.8201	53.756	-195.913	59.7041	32.327	-185.459	85.7556	46.3564	-199.737	74.7341	75.3229	-179.636	50.1099	41.3773	-166.865	78.2455	62.0236	-195.873	66.6291	86.9495	-158.815	51.8225	59.7731	-163.533	76.5592	78.3721	-186.709	63.5771	100.914	-154.634	46.2122	77.1047	-161.742	68.1924	99.2513	-187.142	53.9372	117.652	-197.707	3.2448	88.8174	-214.976	-0.371985	121.706	-234.592	19.6345	90.7102	
226	1.88333	-241.949	62.8244	96.5867	-221.395	85.0254	76.0097	-194.172	96.2279	50.5742	-167.259	82.5705	42.9964	-208.615	56.0642	28.6914	-192.896	82.9705	37.6994	-206.355	75.8859	69.2846	-186.902	50.2566	33.7285	-176.191	79.4267	53.3259	-200.875	65.7435	80.8336	-169.076	52.4982	49.1746	-165.704	74.7476	69.8247	-191.8	61.9044	93.9171	-155.648	46.686	67.6782	-162.724	68.75	91.5561	-186.455	55.9227	107.119	-195.439	3.28515	83.5791	-213.274	0.355812	116.593	-234.799	17.1576	93.3883	
227	1.89167	-240.262	59.8059	99.4645	-226.384	82.777	73.2794	-202.035	91.4379	47.6518	-176.818	81.5061	35.6196	-218.325	51.9109	25.7115	-203.257	80.943	27.424	-213.378	74.2088	63.9244	-196.475	48.7934	27.3082	-184.763	79.918	43.4584	-203.726	66.4238	76.176	-171.462	51.4139	41.2376	-172.638	76.6719	60.5446	-192.414	61.1195	88.8933	-162.932	43.4402	58.6256	-163.836	69.3876	78.6064	-183.131	56.9052	103.667	-201.09	3.43448	78.4221	-207.301	0.938219	115.797	-238.222	16.399	90.4115	
